<svg width="20" height="20" viewBox="0 0 20 20" fill="none" xmlns="http://www.w3.org/2000/svg">
<g clip-path="url(#clip0_1_106)">
<path d="M13.75 2.5C16.2817 2.5 18.3333 4.58333 18.3333 7.5C18.3333 13.3333 12.0833 16.6667 10 17.9167C7.91667 16.6667 1.66667 13.3333 1.66667 7.5C1.66667 4.58333 3.75001 2.5 6.25001 2.5C7.80001 2.5 9.16667 3.33333 10 4.16667C10.8333 3.33333 12.2 2.5 13.75 2.5ZM10.7783 15.5033C11.5125 15.04 12.175 14.5792 12.795 14.0858C15.2792 12.1108 16.6667 9.9525 16.6667 7.5C16.6667 5.53333 15.3858 4.16667 13.75 4.16667C12.8533 4.16667 11.8833 4.64167 11.1783 5.345L10 6.52333L8.82167 5.345C8.11667 4.64167 7.14667 4.16667 6.25001 4.16667C4.63334 4.16667 3.33334 5.54667 3.33334 7.5C3.33334 9.95333 4.72167 12.1108 7.20417 14.0858C7.82501 14.5792 8.48751 15.04 9.22167 15.5025C9.47084 15.66 9.71751 15.8108 10 15.9792C10.2825 15.8108 10.5292 15.66 10.7783 15.5033Z" fill="#AEB7C2"/>
</g>
<defs>
<clipPath id="clip0_1_106">
<rect width="20" height="20" fill="white"/>
</clipPath>
</defs>
</svg>
