<svg width="36" height="36" viewBox="0 0 36 36" fill="none" xmlns="http://www.w3.org/2000/svg">
<rect width="36" height="36" rx="6" fill="white"/>
<path d="M12.878 21.128C13.142 21.128 13.394 21.122 13.634 21.11C13.874 21.098 14.066 21.08 14.21 21.056V19.022C14.102 18.998 13.94 18.974 13.724 18.95C13.508 18.926 13.31 18.914 13.13 18.914C12.878 18.914 12.638 18.932 12.41 18.968C12.194 18.992 12.002 19.046 11.834 19.13C11.666 19.214 11.534 19.328 11.438 19.472C11.342 19.616 11.294 19.796 11.294 20.012C11.294 20.432 11.432 20.726 11.708 20.894C11.996 21.05 12.386 21.128 12.878 21.128ZM12.662 13.28C13.454 13.28 14.114 13.37 14.642 13.55C15.17 13.73 15.59 13.988 15.902 14.324C16.226 14.66 16.454 15.068 16.586 15.548C16.718 16.028 16.784 16.562 16.784 17.15V22.73C16.4 22.814 15.866 22.91 15.182 23.018C14.498 23.138 13.67 23.198 12.698 23.198C12.086 23.198 11.528 23.144 11.024 23.036C10.532 22.928 10.106 22.754 9.746 22.514C9.386 22.262 9.11 21.938 8.918 21.542C8.726 21.146 8.63 20.66 8.63 20.084C8.63 19.532 8.738 19.064 8.954 18.68C9.182 18.296 9.482 17.99 9.854 17.762C10.226 17.534 10.652 17.372 11.132 17.276C11.612 17.168 12.11 17.114 12.626 17.114C12.974 17.114 13.28 17.132 13.544 17.168C13.82 17.192 14.042 17.228 14.21 17.276V17.024C14.21 16.568 14.072 16.202 13.796 15.926C13.52 15.65 13.04 15.512 12.356 15.512C11.9 15.512 11.45 15.548 11.006 15.62C10.562 15.68 10.178 15.77 9.854 15.89L9.512 13.73C9.668 13.682 9.86 13.634 10.088 13.586C10.328 13.526 10.586 13.478 10.862 13.442C11.138 13.394 11.426 13.358 11.726 13.334C12.038 13.298 12.35 13.28 12.662 13.28ZM22.8272 21.128C23.0912 21.128 23.3432 21.122 23.5832 21.11C23.8232 21.098 24.0152 21.08 24.1592 21.056V19.022C24.0512 18.998 23.8892 18.974 23.6732 18.95C23.4572 18.926 23.2592 18.914 23.0792 18.914C22.8272 18.914 22.5872 18.932 22.3592 18.968C22.1432 18.992 21.9512 19.046 21.7832 19.13C21.6152 19.214 21.4832 19.328 21.3872 19.472C21.2912 19.616 21.2432 19.796 21.2432 20.012C21.2432 20.432 21.3812 20.726 21.6572 20.894C21.9452 21.05 22.3352 21.128 22.8272 21.128ZM22.6112 13.28C23.4032 13.28 24.0632 13.37 24.5912 13.55C25.1192 13.73 25.5392 13.988 25.8512 14.324C26.1752 14.66 26.4032 15.068 26.5352 15.548C26.6672 16.028 26.7332 16.562 26.7332 17.15V22.73C26.3492 22.814 25.8152 22.91 25.1312 23.018C24.4472 23.138 23.6192 23.198 22.6472 23.198C22.0352 23.198 21.4772 23.144 20.9732 23.036C20.4812 22.928 20.0552 22.754 19.6952 22.514C19.3352 22.262 19.0592 21.938 18.8672 21.542C18.6752 21.146 18.5792 20.66 18.5792 20.084C18.5792 19.532 18.6872 19.064 18.9032 18.68C19.1312 18.296 19.4312 17.99 19.8032 17.762C20.1752 17.534 20.6012 17.372 21.0812 17.276C21.5612 17.168 22.0592 17.114 22.5752 17.114C22.9232 17.114 23.2292 17.132 23.4932 17.168C23.7692 17.192 23.9912 17.228 24.1592 17.276V17.024C24.1592 16.568 24.0212 16.202 23.7452 15.926C23.4692 15.65 22.9892 15.512 22.3052 15.512C21.8492 15.512 21.3992 15.548 20.9552 15.62C20.5112 15.68 20.1272 15.77 19.8032 15.89L19.4612 13.73C19.6172 13.682 19.8092 13.634 20.0372 13.586C20.2772 13.526 20.5352 13.478 20.8112 13.442C21.0872 13.394 21.3752 13.358 21.6752 13.334C21.9872 13.298 22.2992 13.28 22.6112 13.28Z" fill="#151F46"/>
</svg>
