<svg width="20" height="20" viewBox="0 0 20 20" fill="none" xmlns="http://www.w3.org/2000/svg">
<g clip-path="url(#clip0_1_109)">
<path d="M5.41667 9.58337C4.92421 9.58337 4.43658 9.48638 3.98161 9.29792C3.52664 9.10947 3.11324 8.83324 2.76502 8.48502C2.4168 8.1368 2.14058 7.72341 1.95212 7.26844C1.76367 6.81347 1.66667 6.32583 1.66667 5.83337C1.66667 5.34092 1.76367 4.85328 1.95212 4.39831C2.14058 3.94334 2.4168 3.52994 2.76502 3.18172C3.11324 2.8335 3.52664 2.55728 3.98161 2.36883C4.43658 2.18037 4.92421 2.08337 5.41667 2.08337C6.41123 2.08337 7.36506 2.47846 8.06832 3.18172C8.77158 3.88498 9.16667 4.83881 9.16667 5.83337C9.16667 6.82794 8.77158 7.78176 8.06832 8.48502C7.36506 9.18829 6.41123 9.58337 5.41667 9.58337ZM5.83334 17.9167C4.83878 17.9167 3.88495 17.5216 3.18169 16.8184C2.47843 16.1151 2.08334 15.1613 2.08334 14.1667C2.08334 13.1721 2.47843 12.2183 3.18169 11.5151C3.88495 10.8118 4.83878 10.4167 5.83334 10.4167C6.8279 10.4167 7.78173 10.8118 8.48499 11.5151C9.18825 12.2183 9.58334 13.1721 9.58334 14.1667C9.58334 15.1613 9.18825 16.1151 8.48499 16.8184C7.78173 17.5216 6.8279 17.9167 5.83334 17.9167ZM14.1667 9.58337C13.6742 9.58337 13.1866 9.48638 12.7316 9.29792C12.2766 9.10947 11.8632 8.83324 11.515 8.48502C11.1668 8.1368 10.8906 7.72341 10.7021 7.26844C10.5137 6.81347 10.4167 6.32583 10.4167 5.83337C10.4167 5.34092 10.5137 4.85328 10.7021 4.39831C10.8906 3.94334 11.1668 3.52994 11.515 3.18172C11.8632 2.8335 12.2766 2.55728 12.7316 2.36883C13.1866 2.18037 13.6742 2.08337 14.1667 2.08337C15.1612 2.08337 16.1151 2.47846 16.8183 3.18172C17.5216 3.88498 17.9167 4.83881 17.9167 5.83337C17.9167 6.82794 17.5216 7.78176 16.8183 8.48502C16.1151 9.18829 15.1612 9.58337 14.1667 9.58337ZM14.1667 17.9167C13.1721 17.9167 12.2183 17.5216 11.515 16.8184C10.8118 16.1151 10.4167 15.1613 10.4167 14.1667C10.4167 13.1721 10.8118 12.2183 11.515 11.5151C12.2183 10.8118 13.1721 10.4167 14.1667 10.4167C15.1612 10.4167 16.1151 10.8118 16.8183 11.5151C17.5216 12.2183 17.9167 13.1721 17.9167 14.1667C17.9167 15.1613 17.5216 16.1151 16.8183 16.8184C16.1151 17.5216 15.1612 17.9167 14.1667 17.9167ZM5.41667 7.91671C5.96921 7.91671 6.49911 7.69721 6.88981 7.30651C7.28051 6.91581 7.5 6.38591 7.5 5.83337C7.5 5.28084 7.28051 4.75094 6.88981 4.36023C6.49911 3.96953 5.96921 3.75004 5.41667 3.75004C4.86414 3.75004 4.33423 3.96953 3.94353 4.36023C3.55283 4.75094 3.33334 5.28084 3.33334 5.83337C3.33334 6.38591 3.55283 6.91581 3.94353 7.30651C4.33423 7.69721 4.86414 7.91671 5.41667 7.91671ZM5.83334 16.25C6.38587 16.25 6.91578 16.0305 7.30648 15.6398C7.69718 15.2491 7.91667 14.7192 7.91667 14.1667C7.91667 13.6142 7.69718 13.0843 7.30648 12.6936C6.91578 12.3029 6.38587 12.0834 5.83334 12.0834C5.2808 12.0834 4.7509 12.3029 4.3602 12.6936C3.9695 13.0843 3.75001 13.6142 3.75001 14.1667C3.75001 14.7192 3.9695 15.2491 4.3602 15.6398C4.7509 16.0305 5.2808 16.25 5.83334 16.25ZM14.1667 7.91671C14.7192 7.91671 15.2491 7.69721 15.6398 7.30651C16.0305 6.91581 16.25 6.38591 16.25 5.83337C16.25 5.28084 16.0305 4.75094 15.6398 4.36023C15.2491 3.96953 14.7192 3.75004 14.1667 3.75004C13.6141 3.75004 13.0842 3.96953 12.6935 4.36023C12.3028 4.75094 12.0833 5.28084 12.0833 5.83337C12.0833 6.38591 12.3028 6.91581 12.6935 7.30651C13.0842 7.69721 13.6141 7.91671 14.1667 7.91671ZM14.1667 16.25C14.7192 16.25 15.2491 16.0305 15.6398 15.6398C16.0305 15.2491 16.25 14.7192 16.25 14.1667C16.25 13.6142 16.0305 13.0843 15.6398 12.6936C15.2491 12.3029 14.7192 12.0834 14.1667 12.0834C13.6141 12.0834 13.0842 12.3029 12.6935 12.6936C12.3028 13.0843 12.0833 13.6142 12.0833 14.1667C12.0833 14.7192 12.3028 15.2491 12.6935 15.6398C13.0842 16.0305 13.6141 16.25 14.1667 16.25Z" fill="#AEB7C2"/>
</g>
<defs>
<clipPath id="clip0_1_109">
<rect width="20" height="20" fill="white"/>
</clipPath>
</defs>
</svg>
