<svg width="20" height="20" viewBox="0 0 20 20" fill="none" xmlns="http://www.w3.org/2000/svg">
<g clip-path="url(#clip0_1_108)">
<path d="M18.3333 14.1683C18.333 15.3079 17.9434 16.4133 17.2292 17.3013C16.515 18.1894 15.5189 18.8069 14.4058 19.0516L13.8742 17.4566C14.361 17.3764 14.824 17.1892 15.2298 16.9085C15.6356 16.6278 15.9741 16.2606 16.2208 15.8333H14.1667C13.7246 15.8333 13.3007 15.6577 12.9882 15.3451C12.6756 15.0326 12.5 14.6087 12.5 14.1666V10.8333C12.5 10.3913 12.6756 9.96734 12.9882 9.65478C13.3007 9.34222 13.7246 9.16663 14.1667 9.16663H16.615C16.4116 7.55571 15.6274 6.07435 14.4095 5.00052C13.1916 3.92669 11.6237 3.33419 10 3.33419C8.3763 3.33419 6.80839 3.92669 5.59048 5.00052C4.37257 6.07435 3.58836 7.55571 3.385 9.16663H5.83334C6.27537 9.16663 6.69929 9.34222 7.01185 9.65478C7.32441 9.96734 7.50001 10.3913 7.50001 10.8333V14.1666C7.50001 14.6087 7.32441 15.0326 7.01185 15.3451C6.69929 15.6577 6.27537 15.8333 5.83334 15.8333H3.33334C2.89131 15.8333 2.46739 15.6577 2.15483 15.3451C1.84227 15.0326 1.66667 14.6087 1.66667 14.1666V9.99996C1.66667 5.39746 5.39751 1.66663 10 1.66663C14.6025 1.66663 18.3333 5.39746 18.3333 9.99996V14.1683ZM16.6667 14.1666V10.8333H14.1667V14.1666H16.6667ZM3.33334 10.8333V14.1666H5.83334V10.8333H3.33334Z" fill="#AEB7C2"/>
</g>
<defs>
<clipPath id="clip0_1_108">
<rect width="20" height="20" fill="white"/>
</clipPath>
</defs>
</svg>
