<svg width="98" height="24" viewBox="0 0 98 24" fill="none" xmlns="http://www.w3.org/2000/svg">
<path d="M13.1033 17.3467V23.7626H10.2518C5.00108 23.7626 2.37616 21.1486 2.37616 15.9209V10.8968H0V4.61686H2.37616V0.000162125H9.91231V4.61686H13.0353V10.8968H9.91231V16.0568C9.91231 16.5097 10.0196 16.8377 10.2346 17.0412C10.4497 17.2448 10.806 17.3467 11.3041 17.3467H13.1033Z" fill="#000047"/>
<path d="M26.3419 5.48248C27.4504 4.81509 28.6046 4.48125 29.8044 4.48125V12.5264H27.6657C26.2403 12.5264 25.1933 12.7758 24.5259 13.2733C23.8579 13.7714 23.5244 14.6538 23.5244 15.9209V23.7626H15.9882V4.61687H23.5244V8.14727C24.2937 7.03879 25.2329 6.15043 26.3419 5.48248Z" fill="#000047"/>
<path d="M53.279 16.5998L56.334 4.61687H64.3455L57.9636 23.7626H48.5604L42.1785 4.61687H50.1897L53.279 16.5998Z" fill="#000047"/>
<path d="M88.9401 16.6506C89.4155 16.0963 89.653 15.2759 89.653 14.1896C89.653 13.1033 89.4155 12.2832 88.9401 11.7284C88.4648 11.1741 87.876 10.8967 87.1746 10.8967C86.4733 10.8967 85.8848 11.1741 85.4097 11.7284C84.9344 12.2832 84.6968 13.1033 84.6968 14.1896C84.6968 15.2759 84.9285 16.0963 85.3926 16.6506C85.8564 17.2056 86.4503 17.4822 87.1746 17.4822C87.876 17.4822 88.4648 17.2056 88.9401 16.6506ZM81.981 22.8121C80.4418 22.02 79.2367 20.8829 78.3658 19.4004C77.4943 17.9182 77.0588 16.1811 77.0588 14.1896C77.0588 12.1984 77.4943 10.4613 78.3658 8.9788C79.2367 7.4969 80.4418 6.3595 81.981 5.56717C83.5199 4.77511 85.2511 4.37923 87.1746 4.37923C89.0982 4.37923 90.8294 4.77511 92.3686 5.56717C93.9072 6.3595 95.1123 7.4969 95.9838 8.9788C96.8547 10.4613 97.2908 12.1984 97.2908 14.1896C97.2908 16.1811 96.8547 17.9182 95.9838 19.4004C95.1123 20.8829 93.9072 22.02 92.3686 22.8121C90.8294 23.6044 89.0982 24 87.1746 24C85.2511 24 83.5199 23.6044 81.981 22.8121Z" fill="#000047"/>
<path d="M34.6867 23.78C34.6867 22.915 35.3881 22.2136 36.2531 22.2136C37.1182 22.2136 37.8196 22.915 37.8196 23.78H40.6652V4.61663H37.8196C37.8196 5.48169 37.1182 6.18277 36.2531 6.18277C35.3881 6.18277 34.6867 5.48169 34.6867 4.61663H31.8411V23.78H34.6867Z" fill="#000047"/>
<path d="M72.3263 4.59893C72.3263 5.46399 71.6249 6.16535 70.7599 6.16535C69.8948 6.16535 69.1934 5.46399 69.1934 4.59893H66.3478V23.7623H69.1934C69.1934 22.8973 69.8948 22.1962 70.7599 22.1962C71.6249 22.1962 72.3263 22.8973 72.3263 23.7623H75.1719V4.59893H72.3263Z" fill="#000047"/>
</svg>
